<svg xmlns="http://www.w3.org/2000/svg" viewBox="0 0 22.309324 23.997999">
  <path d="M21.310662 14.405c.953.547 1.281 1.781.734 2.734l-1 1.719c-.547.953-1.781 1.281-2.734.734l-4.156-2.391v4.797c0 1.094-.906 2-2 2h-2c-1.0940001 0-2.0000001-.906-2.0000001-2v-4.797l-4.156 2.391c-.953.547-2.187.219-2.734-.734l-1-1.719c-.547-.953-.219-2.188.734-2.734l4.156-2.406-4.156-2.406c-.953-.547-1.281-1.781-.734-2.734l1-1.719c.547-.953 1.781-1.281 2.734-.734l4.156 2.391V2c0-1.094.906-2 2.0000001-2h2c1.094 0 2 .906 2 2v4.797l4.156-2.391c.953-.547 2.188-.219 2.734.734l1 1.719c.547.953.219 2.188-.734 2.734l-4.156 2.406z"/>
</svg>
