<svg xmlns="http://www.w3.org/2000/svg" viewBox="0 0 512 384">
  <path d="M500 320c6.6 0 12 5.4 12 12v40c0 6.6-5.4 12-12 12H12c-6.6 0-12-5.4-12-12V12C0 5.4 5.4 0 12 0h40c6.6 0 12 5.4 12 12v308zm-308-44v-72c0-6.6-5.4-12-12-12h-40c-6.6 0-12 5.4-12 12v72c0 6.6 5.4 12 12 12h40c6.6 0 12-5.4 12-12zm192 0V140c0-6.6-5.4-12-12-12h-40c-6.6 0-12 5.4-12 12v136c0 6.6 5.4 12 12 12h40c6.6 0 12-5.4 12-12zm-96 0V76c0-6.6-5.4-12-12-12h-40c-6.6 0-12 5.4-12 12v200c0 6.6 5.4 12 12 12h40c6.6 0 12-5.4 12-12zm192 0V44c0-6.6-5.4-12-12-12h-40c-6.6 0-12 5.4-12 12v232c0 6.6 5.4 12 12 12h40c6.6 0 12-5.4 12-12z"/>
</svg>
