<svg xmlns="http://www.w3.org/2000/svg" viewBox="0 0 32 32">
  <path d="M6.007 7.907V8c.213 5.867 1.307 11.113 1.807 11.626 1.16 1.547 4.753 4.094 6.78 5.374.5.32.927.38 1.407.393.48-.013.906-.093 1.406-.393 2.067-1.22 5.707-3.827 6.861-5.374.507-.513 1.52-5.759 1.733-11.626l.007-.093c0-.54-.347-1.007-.827-1.18-2.513-.873-6.193-1.107-9.173-1.107-2.987 0-6.667.233-9.173 1.107-.481.173-.827.64-.827 1.18zM0 4.06l.007.147c.34 9.387 1.846 17.64 2.66 18.46 1.867 2.481 7.833 6.333 11.06 8.44.767.5 1.5.874 2.273.893.773-.019 1.507-.393 2.273-.893 3.227-2.107 9.193-5.959 11.06-8.44.813-.82 2.32-9.073 2.66-18.46L32 4.06c0-.867-.56-1.62-1.333-1.893C26.62.767 20.814 0 16 0S5.379.767 1.333 2.167C.56 2.44 0 3.194 0 4.06zm3.233 2.18c0-.693.447-1.287 1.06-1.507 3.2-1.107 7.9-1.4 11.707-1.4s8.507.293 11.707 1.4c.613.22 1.06.813 1.06 1.507l-.007.113c-.273 7.433-1.56 14.18-2.207 14.833-1.481 1.96-6.201 5.106-8.753 6.773-.607.394-1.187.694-1.8.707-.613-.013-1.193-.313-1.8-.707-2.553-1.667-7.273-4.813-8.753-6.773-.647-.653-1.933-7.4-2.207-14.833l-.006-.113z"/>
</svg>
