<svg xmlns="http://www.w3.org/2000/svg" viewBox="0 0 29.715 32">
  <path d="M0 29.714V6.857q0-.929.679-1.607.679-.678 1.607-.679h2.286V2.857q0-1.179.839-2.018Q6.25 0 7.429 0h1.143q1.179 0 2.018.839.839.839.839 2.018v1.714h6.857V2.857q0-1.179.839-2.018Q19.964 0 21.143 0h1.143q1.179 0 2.018.839.839.839.839 2.018v1.714h2.286q.929 0 1.607.679.678.679.679 1.607v22.857q0 .929-.679 1.607-.679.678-1.607.679H2.286q-.929 0-1.607-.679-.678-.679-.679-1.607zm2.286 0h5.143v-5.143H2.286zm0-6.285h5.143v-5.714H2.286zm0-6.858h5.143v-5.143H2.286zM6.857 8q0 .232.17.402t.402.17h1.143q.232 0 .402-.17T9.144 8V2.857q0-.232-.17-.402t-.402-.17H7.429q-.232 0-.402.17t-.17.402zm1.714 21.714h5.714v-5.143H8.571zm0-6.285h5.714v-5.714H8.571zm0-6.858h5.714v-5.143H8.571zm6.858 13.143h5.714v-5.143h-5.714zm0-6.285h5.714v-5.714h-5.714zm0-6.858h5.714v-5.143h-5.714zM20.571 8q0 .232.17.402t.402.17h1.143q.232 0 .402-.17t.17-.402V2.857q0-.232-.17-.402t-.402-.17h-1.143q-.232 0-.402.17t-.17.402zm1.715 21.714h5.143v-5.143h-5.143zm0-6.285h5.143v-5.714h-5.143zm0-6.858h5.143v-5.143h-5.143z"/>
</svg>
