<svg xmlns="http://www.w3.org/2000/svg" viewBox="0 0 32.004002 25.143">
  <path d="M.002 22.286V8.107q.786.875 1.804 1.554 6.464 4.393 8.875 6.161 1.018.75 1.652 1.17.634.42 1.688.857 1.054.437 1.964.438h.036q.911 0 1.964-.438t1.688-.857q.635-.419 1.652-1.17 3.036-2.196 8.893-6.161 1.018-.696 1.786-1.554v14.179q0 1.179-.839 2.018-.839.839-2.018.839H2.861q-1.179 0-2.018-.839-.839-.839-.839-2.018zm0-19.036q0-1.393.741-2.321Q1.484.001 2.859 0h26.286q1.161 0 2.009.839.848.839.848 2.018 0 1.411-.875 2.696-.875 1.285-2.179 2.196-6.714 4.661-8.357 5.804-.179.125-.759.545-.58.42-.964.679-.384.259-.929.58-.545.321-1.027.482-.482.161-.893.161h-.036q-.411 0-.893-.161-.482-.161-1.027-.482-.545-.321-.929-.58-.384-.259-.964-.679-.58-.42-.759-.545-1.625-1.143-4.679-3.259-3.054-2.116-3.661-2.545-1.107-.75-2.089-2.063Q0 4.373 0 3.248z"/>
</svg>
