<svg xmlns="http://www.w3.org/2000/svg" viewBox="0 0 14 16">
  <path d="M13 7h.25c.412 0 .75-.338.75-.75v-2.5c0-.413-.338-.75-.75-.75H13V0h-2v3h-.25c-.412 0-.75.337-.75.75v2.5c0 .412.338.75.75.75H11v9h2zm-2-3h2v2h-2zm-2.75 9c.412 0 .75-.338.75-.75v-2.5C9 9.338 8.662 9 8.25 9H8V0H6v9h-.25c-.412 0-.75.338-.75.75v2.5c0 .412.338.75.75.75H6v3h2v-3zM6 10h2v2H6zM3.25 7c.412 0 .75-.338.75-.75v-2.5C4 3.337 3.662 3 3.25 3H3V0H1v3H.75C.337 3 0 3.337 0 3.75v2.5c0 .412.337.75.75.75H1v9h2V7zM1 4h2v2H1z"/>
</svg>
