<svg xmlns="http://www.w3.org/2000/svg" viewBox="0 0 33.556 25.143">
  <path d="M.001 21.143V4q0-1.643 1.179-2.821Q2.359.001 4.001 0h5.714q1.643 0 2.821 1.179Q13.714 2.358 13.715 4v.571h9.714q1.643 0 2.821 1.179 1.178 1.179 1.179 2.821v2.857H12.572q-1.679 0-3.518.848-1.839.848-2.929 2.134L.018 21.589q0-.071-.009-.223Q0 21.214 0 21.143zm1.304 3q0-.554.554-1.179l6-7.071q.768-.911 2.152-1.545 1.384-.634 2.563-.634h19.429q.607 0 1.08.232.473.232.473.768 0 .554-.554 1.179l-6 7.071q-.768.911-2.152 1.545-1.384.634-2.563.634H2.858q-.607 0-1.08-.232-.473-.232-.473-.768z"/>
</svg>
