<svg xmlns="http://www.w3.org/2000/svg" viewBox="0 0 31.998 32">
  <path d="M27.998 24c-.969 0-1.828.391-2.523.965l-6.096-4.352c.387-.797.621-1.672.621-2.613 0-1.293-.422-2.488-1.117-3.465l7.131-7.137c.593.348 1.25.602 1.984.602 2.211 0 4-1.789 4-4s-1.789-4-4-4-4 1.789-4 4c0 .738.258 1.391.602 1.984l-7.131 7.137C16.484 12.418 15.297 12 14 12c-2.289 0-4.258 1.301-5.27 3.191l-4.816-1.609C3.719 12.684 2.957 12 2 12c-1.105 0-2 .895-2 2s.895 2 2 2c.504 0 .953-.203 1.305-.512l4.789 1.598C8.047 17.387 8 17.688 8 18c0 3.312 2.688 6 6 6 1.648 0 3.145-.668 4.23-1.746l6.057 4.324c-.172.445-.289.918-.289 1.422 0 2.207 1.789 4 4 4s4-1.793 4-4-1.789-4-4-4z" />
</svg>
