<svg xmlns="http://www.w3.org/2000/svg" viewBox="0 0 29.439726 29.439701">
  <path d="M14.524351.00135047C6.3943507.11035047-.10764933 6.7883505.00135067 14.91835c.109 8.125 6.78700003 14.629 14.91700033 14.52 8.126-.109 14.63-6.787 14.52-14.917-.107-8.1259995-6.786-14.62899953-14.914-14.51999953zm-.043 23.67799953h-.082c-1.251-.037-2.134-.96-2.099-2.194.035-1.211.939-2.093 2.15-2.093l.074.002c1.286.038 2.16.952 2.122 2.221-.035 1.214-.926 2.064-2.165 2.064zm5.265-10.451c-.296.418-.942.938-1.758 1.573l-.899.621c-.493.384-.79.744-.901 1.098-.09.282-.131.354-.139.922l-.002.146h-3.429l.01-.291c.042-1.194.072-1.894.566-2.475.776-.91 2.488-2.013 2.56-2.059.245-.186.451-.395.606-.619.36-.496.518-.888.518-1.27 0-.533-.158-1.0259995-.47-1.4639995-.301-.424-.872-.638-1.698-.638-.819 0-1.379.261-1.715.794-.347.5489995-.52 1.1229995-.52 1.7119995v.147H8.9393507l.006-.154c.091-2.1659995.864-3.7249995 2.2980003-4.6349995.899-.581 2.019-.874 3.325-.874 1.71 0 3.157.416 4.293 1.235 1.152.83 1.736 2.075 1.736 3.6979995 0 .909-.286 1.762-.851 2.536z"/>
</svg>
