<svg xmlns="http://www.w3.org/2000/svg" viewBox="0 0 28.789829 22.909002">
  <path d="M.00201242 11.544q.018-.241.196-.384L13.037012.464q.571-.464 1.357-.464t1.357.464l4.357 3.643V.625q0-.25.161-.411.161-.161.411-.161h3.429q.25 0 .411.161.161.161.161.411v7.286l3.911 3.25q.179.143.196.384.017.241-.125.42l-1.107 1.321q-.143.161-.375.196h-.054q-.232 0-.375-.125l-12.357-10.304L2.0380124 13.357q-.214.143-.429.125-.232-.036-.375-.196L.12701242 11.965q-.143-.179-.125-.42zM4.1090124 21.767v-8.571q0-.018.009-.054.009-.036.009-.054L14.395012 4.624l10.268 8.464q.018.036.018.107v8.571q0 .464-.339.804t-.804.339h-6.857v-6.857h-4.571v6.857H5.2530124q-.464 0-.804-.339t-.339-.804z"/>
</svg>
