<svg xmlns="http://www.w3.org/2000/svg" viewBox="0 0 28 32">
  <path d="M12.001 18l-2-2-6 6 6 6 2-2-4-4zm4 8l2 2 6-6-6-6-2 2 4 4zM26.233 6.232l-4.465-4.464C20.796.796 18.875 0 17.5 0h-15C1.125 0 0 1.125 0 2.5v27C0 30.875 1.125 32 2.5 32h23c1.375 0 2.5-1.125 2.5-2.5v-19c0-1.375-.796-3.296-1.768-4.268zm-1.414 1.414c.098.098.195.218.29.354h-5.108V2.892c.136.095.256.192.354.29l4.465 4.464zM26.001 29.5c0 .271-.229.5-.5.5h-23c-.271 0-.5-.229-.5-.5v-27c0-.271.229-.5.5-.5h15c.151 0 .32.019.5.053V10h7.947c.034.18.053.349.053.5z"/>
</svg>
