<svg xmlns="http://www.w3.org/2000/svg" viewBox="0 0 15 12">
  <path d="M5 3.5q0 .625-.438 1.062Q4.124 4.999 3.5 5q-.624.001-1.062-.438Q2 4.123 2 3.5t.438-1.062Q2.876 1.999 3.5 2q.624.001 1.062.438Q5 2.875 5 3.5zm8 3V10H2V8.5L4.5 6l1.25 1.25 4-4zm.75-5.5H1.25q-.102 0-.176.074T1 1.25v9.5q0 .102.074.176T1.25 11h12.5q.102 0 .176-.074T14 10.75v-9.5q0-.102-.074-.176T13.75 1zm1.25.25v9.5q0 .516-.367.883T13.75 12H1.25q-.516 0-.883-.367T0 10.75v-9.5Q0 .734.367.367T1.25 0h12.5q.516 0 .883.367T15 1.25z"/>
</svg>
