<svg xmlns="http://www.w3.org/2000/svg" viewBox="0 0 29.439651 29.439701">
  <path d="M14.523326.00135047C6.3953262.11035047-.10667382 6.7883505.00132618 14.91835c.109 8.125 6.78700002 14.629 14.91499982 14.52 8.128-.109 14.63-6.787 14.522-14.917-.107-8.1259995-6.787-14.62899953-14.915-14.51999953zm1.632 4.90500003c1.496 0 1.938.867 1.938 1.861 0 1.24-.994 2.387-2.688 2.387-1.418 0-2.091-.714-2.051-1.891 0-.994.832-2.357 2.802-2.357zm-3.837 19.0129995c-1.022 0-1.771-.621-1.056-3.35l1.173-4.838c.203-.776.237-1.086 0-1.086-.306 0-1.634.536-2.419 1.064l-.5099998-.837c2.4879998-2.077 5.3489998-3.296 6.5739998-3.296 1.022 0 1.192 1.21.682 3.07l-1.344 5.088c-.237.899-.134 1.21.102 1.21.306 0 1.312-.371 2.301-1.149l.578.776c-2.418 2.418-5.056 3.349-6.08 3.349z"/>
</svg>
