<svg xmlns="http://www.w3.org/2000/svg" viewBox="0 0 29.143 29.142">
  <path d="M0 7.714q0-2.143 1.518-3.625l2.625-2.607Q5.625 0 7.768 0q2.161 0 3.643 1.518l3.679 3.696q1.482 1.482 1.482 3.625 0 2.196-1.571 3.732l1.571 1.571q1.536-1.571 3.714-1.571 2.143 0 3.643 1.5l3.714 3.714q1.5 1.5 1.5 3.643t-1.518 3.625L25 27.66q-1.482 1.482-3.625 1.482-2.161 0-3.643-1.518l-3.679-3.696q-1.482-1.482-1.482-3.625 0-2.196 1.571-3.732L12.571 15q-1.536 1.571-3.714 1.571-2.143 0-3.643-1.5L1.5 11.357Q0 9.857 0 7.714zm3.428 0q0 .714.5 1.214l3.714 3.714q.482.482 1.214.482.75 0 1.286-.554-.054-.054-.339-.33-.285-.276-.384-.384-.099-.108-.268-.339-.169-.231-.232-.455t-.063-.491q0-.714.5-1.214t1.214-.5q.268 0 .491.063.223.063.455.232t.339.268q.107.099.384.384.277.285.33.339.589-.554.589-1.304 0-.714-.5-1.214L8.979 3.929q-.5-.5-1.214-.5-.696 0-1.214.482L3.926 6.518q-.5.5-.5 1.196zm12.554 12.589q0 .714.5 1.214l3.679 3.696q.482.482 1.214.482.714 0 1.214-.464l2.625-2.607q.5-.5.5-1.196 0-.714-.5-1.214L21.5 16.5q-.5-.5-1.214-.5-.75 0-1.286.571.054.054.339.33.285.276.384.384.099.108.268.339.169.231.232.455t.063.491q0 .714-.5 1.214t-1.214.5q-.268 0-.491-.063-.223-.063-.455-.232t-.339-.268q-.107-.099-.384-.384-.277-.285-.33-.339-.589.554-.589 1.304z"/>
</svg>
