<svg xmlns="http://www.w3.org/2000/svg" viewBox="0 0 27.430006 27.430006">
  <path d="M.00100293 26.287003v-8q0-.75.714-1.054.69599997-.304 1.23199997.25l2.571 2.571 6.3390001-6.339-6.3390001-6.3390001-2.571 2.571q-.339.3390001-.804.3390001-.21399997 0-.42899997-.089-.714-.3040001-.714-1.0540001v-8q0-.46399997.339-.80399997t.80399997-.339h8q.75 0 1.0540001.714.304.69599997-.2500001 1.23199997l-2.571 2.571 6.3390001 6.3390001 6.339-6.3390001-2.571-2.571q-.554-.536-.25-1.23199997.304-.714 1.054-.714h8q.464 0 .804.339t.339.80399997v8q0 .75-.696 1.0540001-.232.089-.446.089-.464 0-.804-.3390001l-2.571-2.571-6.339 6.3390001 6.339 6.339 2.571-2.571q.518-.554 1.25-.25.696.304.696 1.054v8q0 .464-.339.804t-.804.339h-8q-.75 0-1.054-.714-.304-.696.25-1.232l2.571-2.571-6.339-6.339-6.3390001 6.339 2.571 2.571q.5540001.536.2500001 1.232-.3040001.714-1.0540001.714h-8q-.46399997 0-.80399997-.339t-.339-.804z"/>
</svg>
