<svg xmlns="http://www.w3.org/2000/svg" viewBox="0 0 38.858002 32">
  <path d="M.00000293 25.715v-7.429q0-.679.384-1.25t1.00899997-.857l7.75-3.321V5.715q0-.679.384-1.25t1.0090001-.857l8-3.429q.411-.179.893-.179.482 0 .893.179l8 3.429q.625.286 1.009.857.384.571.384 1.25v7.143l7.75 3.321q.643.286 1.018.857t.375 1.25v7.429q0 .643-.339 1.196-.339.553-.929.839l-8 4q-.446.25-1.018.25-.572 0-1.018-.25l-8-4q-.089-.036-.125-.071-.036.036-.125.071l-8 4q-.446.25-1.018.25-.5720001 0-1.0180001-.25l-8-4q-.58899997-.286-.92899997-.839-.34-.553-.339-1.196zm3.07099997-7.768l7.2140001 3.089 7.214-3.089-7.214-3.089zm8.3580001 11.197l6.857-3.429v-5.607l-6.857 2.929zm.125-23.482l7.875 3.375 7.875-3.375-7.875-3.375zm9.017 10.143l6.857-2.946v-4.75l-6.857 2.929v4.768zm.786 2.142l7.214 3.089 7.214-3.089-7.214-3.089zm8.357 11.197l6.857-3.429v-5.607l-6.857 2.929z"/>
</svg>
