<svg xmlns="http://www.w3.org/2000/svg" viewBox="0 0 32 32">
  <path d="M0 23.429v-12q0-.714.357-1.571t.857-1.357L8.5 1.215q.5-.5 1.357-.857t1.571-.357h7.429q.714 0 1.214.5t.5 1.214v5.857q1.214-.714 2.286-.714h7.429q.714 0 1.214.5t.5 1.214v21.714q0 .714-.5 1.214t-1.214.5H13.143q-.714 0-1.214-.5t-.5-1.214v-5.143H1.715q-.714 0-1.214-.5t-.5-1.214zm2.286-.572h9.143v-4.571q0-.714.357-1.571t.857-1.357l5.643-5.643V2.286h-6.857v7.429q0 .714-.5 1.214t-1.214.5H2.286v11.429zM3.804 9.143h5.339V3.804zm9.91 20.571h16V9.143h-6.857v7.429q0 .714-.5 1.214t-1.214.5h-7.429v11.429zM15.232 16h5.339v-5.339z"/>
</svg>
