<svg xmlns="http://www.w3.org/2000/svg" viewBox="0 0 27.427999 27.429001">
  <path d="M.001 25.143v-8q0-.464.339-.804T1.144 16h8q.464 0 .804.339t.339.804q-.001.465-.339.804l-2.446 2.446q1.268 1.179 2.875 1.821 1.607.642 3.339.643 2.393 0 4.464-1.161 2.071-1.161 3.321-3.196.196-.304.946-2.089.143-.411.536-.411h3.429q.232 0 .402.17t.17.402q0 .089-.018.125-1.143 4.786-4.786 7.759-3.643 2.973-8.536 2.973-2.607 0-5.045-.982-2.438-.982-4.348-2.804l-2.304 2.304q-.339.339-.804.339t-.804-.339Q0 25.608 0 25.143zm.321-14.286v-.125q1.161-4.786 4.821-7.759Q8.803 0 13.714 0q2.607 0 5.071.991 2.464.991 4.375 2.795l2.321-2.304q.339-.339.804-.339t.804.339q.339.339.339.804v8q0 .464-.339.804t-.804.339h-8q-.464 0-.804-.339t-.339-.804q.001-.465.339-.804l2.464-2.464q-2.643-2.446-6.232-2.446-2.393 0-4.464 1.161-2.071 1.161-3.321 3.196-.196.304-.946 2.089-.143.411-.536.411H.892q-.232 0-.402-.17t-.17-.402z"/>
</svg>
