<svg xmlns="http://www.w3.org/2000/svg" viewBox="0 0 27.429003 27.427999">
  <path d="M.00200293 10.286v-8q0-.75.714-1.054.69599997-.304 1.23199997.25l2.321 2.304q1.911-1.804 4.366-2.795Q11.090003 0 13.715003 0q2.786 0 5.321 1.089 2.535 1.089 4.375 2.929 1.84 1.84 2.929 4.375 1.089 2.535 1.089 5.321 0 2.786-1.089 5.321-1.089 2.535-2.929 4.375-1.84 1.84-4.375 2.929-2.535 1.089-5.321 1.089-3.071 0-5.8390001-1.295-2.768-1.295-4.714-3.652-.125-.179-.116-.402.009-.223.152-.366l2.446-2.464q.179-.161.446-.161.286.036.411.214 1.304 1.696 3.196 2.625 1.8920001.929 4.0180001.929 1.857 0 3.545-.723t2.92-1.955q1.232-1.232 1.955-2.92.723-1.688.723-3.545t-.723-3.545q-.723-1.688-1.955-2.92-1.232-1.232-2.92-1.955-1.688-.723-3.545-.723-1.75 0-3.357.634-1.6070001.634-2.8570001 1.813l2.446 2.464q.5540001.536.2500001 1.232-.3040001.714-1.0540001.714h-8q-.46399997 0-.80399997-.339t-.339-.804z"/>
</svg>
