<svg xmlns="http://www.w3.org/2000/svg" viewBox="0 0 23.87841 28.058001">
  <path d="M21.897411 8.129119c1.094 0 1.981-.878557 1.981-1.962876v-3.84047c0-1.282456-1.0529-2.325773-2.3472-2.325773H2.1812111c-.8706 0-1.63090002.464859-1.98400002 1.213143-.3534.748278-.2256 1.624667.3333 2.287303l9.38459982 11.1168-9.29999982 9.874256c-.6094.647765-.7768 1.532857-.4358 2.308352.3406.776233 1.10750002 1.258146 2.00190002 1.258146H21.531211c1.2943 0 2.3472-1.043317 2.3472-2.325773v-4.566251c0-1.083955-.887-1.962877-1.981-1.962877-1.0939 0-1.981.878922-1.981 1.962877v2.966276H6.3728111l7.3841999-7.840264c.8218-.873478.8588-2.223796.085-3.141184L6.0549111 3.925752H19.916811v2.240854c0 1.083956.8871 1.962513 1.981 1.962513z"/>
</svg>
