<svg xmlns="http://www.w3.org/2000/svg" viewBox="0 0 33.91 27.055">
  <path d="M0 9.715V2.286Q0 1.357.679.679 1.358.001 2.286 0h7.429q.946 0 2.089.473t1.821 1.152l12.768 12.75q.661.696.661 1.625 0 .946-.661 1.607l-8.768 8.786q-.696.661-1.625.661-.946 0-1.607-.661L1.625 13.607q-.679-.661-1.152-1.804Q0 10.66 0 9.714zm3.429-4q0 .946.67 1.616.67.67 1.616.67.946 0 1.616-.67.67-.67.67-1.616 0-.946-.67-1.616-.67-.67-1.616-.67-.946 0-1.616.67-.67.67-.67 1.616zM12.571.001h4q.946 0 2.089.473t1.821 1.152l12.768 12.75q.661.696.661 1.625 0 .946-.661 1.607l-8.768 8.786q-.696.661-1.625.661-.643 0-1.054-.25-.411-.25-.946-.804l8.393-8.393q.661-.661.661-1.607 0-.929-.661-1.625L16.481 1.626Q15.802.947 14.66.474 13.518.001 12.571.001z"/>
</svg>
