<svg xmlns="http://www.w3.org/2000/svg" viewBox="0 0 31.999001 25.142">
  <path d="M0 23.428v-3.429q0-.714.5-1.214t1.214-.5h5.714q.714 0 1.214.5t.5 1.214v3.429q0 .714-.5 1.214t-1.214.5H1.714q-.714 0-1.214-.5T0 23.428zm0-9.143v-3.429q0-.714.5-1.214t1.214-.5h5.714q.714 0 1.214.5t.5 1.214v3.429q0 .714-.5 1.214t-1.214.5H1.714q-.714 0-1.214-.5T0 14.285zm0-9.142V1.714Q0 1 .5.5T1.714 0h5.714q.714 0 1.214.5t.5 1.214v3.429q0 .714-.5 1.214t-1.214.5H1.714Q1 6.857.5 6.357T0 5.143zm11.429 18.285v-3.429q0-.714.5-1.214t1.214-.5h5.714q.714 0 1.214.5t.5 1.214v3.429q0 .714-.5 1.214t-1.214.5h-5.714q-.714 0-1.214-.5t-.5-1.214zm0-9.143v-3.429q0-.714.5-1.214t1.214-.5h5.714q.714 0 1.214.5t.5 1.214v3.429q0 .714-.5 1.214t-1.214.5h-5.714q-.714 0-1.214-.5t-.5-1.214zm0-9.142V1.714q0-.714.5-1.214t1.214-.5h5.714q.714 0 1.214.5t.5 1.214v3.429q0 .714-.5 1.214t-1.214.5h-5.714q-.714 0-1.214-.5t-.5-1.214zm11.428 18.285v-3.429q0-.714.5-1.214t1.214-.5h5.714q.714 0 1.214.5t.5 1.214v3.429q0 .714-.5 1.214t-1.214.5h-5.714q-.714 0-1.214-.5t-.5-1.214zm0-9.143v-3.429q0-.714.5-1.214t1.214-.5h5.714q.714 0 1.214.5t.5 1.214v3.429q0 .714-.5 1.214t-1.214.5h-5.714q-.714 0-1.214-.5t-.5-1.214zm0-9.142V1.714q0-.714.5-1.214t1.214-.5h5.714q.714 0 1.214.5t.5 1.214v3.429q0 .714-.5 1.214t-1.214.5h-5.714q-.714 0-1.214-.5t-.5-1.214z"/>
</svg>
