<svg xmlns="http://www.w3.org/2000/svg" viewBox="0 0 25.641001 25.672001">
  <path d="M5.671 21q0-.406-.297-.703Q5.077 20 4.671 20q-.406 0-.703.297-.297.297-.297.703 0 .406.297.703.297.297.703.297.406 0 .703-.297.297-.297.297-.703zm10.063-6.562L5.078 25.094q-.578.578-1.406.578-.812 0-1.422-.578L.594 23.407Q0 22.845 0 22.001q0-.828.594-1.422L11.235 9.938q.609 1.531 1.789 2.711t2.711 1.789zm9.906-6.797q0 .609-.359 1.656-.734 2.094-2.57 3.398-1.836 1.304-4.039 1.305-2.891 0-4.945-2.055Q11.673 9.89 11.672 7q-.001-2.89 2.055-4.945T18.672 0q.906 0 1.898.258.992.258 1.68.727.25.172.25.438t-.25.438l-4.578 2.641v3.5l3.016 1.672q.078-.047 1.234-.758t2.117-1.266q.961-.555 1.102-.555.234 0 .367.156.133.156.133.391z"/>
</svg>
