<svg xmlns="http://www.w3.org/2000/svg" viewBox="0 0 34 32">
  <path d="M0 15.446q0-6.304 2.214-6.304.107 0 .777.375t1.741.759 2.125.384q1.196 0 2.375-.411-.089.661-.089 1.179 0 2.482 1.446 4.571-2.893.089-4.732 2.286H3.464Q2 18.285 1 17.562t-1-2.116zM2.286 4.571q0-1.893 1.339-3.232T6.857 0t3.232 1.339 1.339 3.232-1.339 3.232-3.232 1.339-3.232-1.339-1.339-3.232zm2.285 22.804q0-.946.063-1.848t.25-1.946.473-1.938.768-1.741 1.107-1.446 1.527-.955 1.991-.357q.179 0 .768.384t1.304.857 1.911.857 2.411.384 2.411-.384 1.911-.857 1.304-.857.768-.384q1.089 0 1.991.357t1.527.955 1.107 1.446.768 1.741.473 1.938.25 1.946.063 1.848q0 2.143-1.304 3.384T24.949 32H9.342q-2.161 0-3.464-1.241t-1.304-3.384zm5.715-15.946q0-2.839 2.009-4.848t4.848-2.009 4.848 2.009T24 11.429t-2.009 4.848-4.848 2.009-4.848-2.009-2.009-4.848zm12.571-6.858q0-1.893 1.339-3.232T27.428 0t3.232 1.339 1.339 3.232-1.339 3.232-3.232 1.339-3.232-1.339-1.339-3.232zM23.696 16q1.446-2.089 1.446-4.571 0-.518-.089-1.179 1.179.411 2.375.411 1.054 0 2.125-.384t1.741-.759.777-.375q2.214 0 2.214 6.304 0 1.393-1 2.116t-2.464.723h-2.393Q26.589 16.09 23.696 16z"/>
</svg>
