<svg xmlns="http://www.w3.org/2000/svg" viewBox="0 0 25.143999 27.427999">
  <path d="M0 22.803q0-.946.063-1.848.063-.902.25-1.946t.473-1.938q.286-.894.768-1.741.482-.847 1.107-1.446t1.527-.955q.902-.356 1.991-.357.161 0 .75.384t1.33.857q.741.473 1.929.857 1.188.384 2.384.384t2.384-.384q1.188-.384 1.929-.857.741-.473 1.33-.857.589-.384.75-.384 1.089 0 1.991.357.902.357 1.527.955.625.598 1.107 1.446t.768 1.741q.286.893.473 1.938t.25 1.946q.063.901.063 1.848 0 2.143-1.304 3.384t-3.464 1.241H4.769q-2.161 0-3.464-1.241T.001 22.803zM5.714 6.857q0-2.839 2.009-4.848T12.571 0q2.839 0 4.848 2.009t2.009 4.848q0 2.839-2.009 4.848t-4.848 2.009q-2.839 0-4.848-2.009T5.714 6.857z"/>
</svg>
