<svg xmlns="http://www.w3.org/2000/svg" viewBox="0 0 31.993999 21.332001">
  <path d="M11.994 10.666c0 2.207 1.793 4 4 4s4-1.793 4-4v-.033c-.427.433-1.013.7-1.667.7-1.287 0-2.333-1.047-2.333-2.333 0-.927.546-1.733 1.327-2.107-.413-.147-.86-.227-1.327-.227-2.207 0-4 1.793-4 4zM31.1 8.393C28.62 5.24 22.58 0 16 0 9.413 0 3.367 5.24.887 8.393c-.56.72-.867 1.5-.887 2.273.02.773.327 1.553.887 2.273 2.481 3.154 8.52 8.393 15.107 8.393s12.626-5.239 15.107-8.393c.567-.72.873-1.5.893-2.273-.02-.773-.327-1.553-.893-2.273zm-15.106 8.94c-3.68 0-6.667-2.987-6.667-6.667 0-3.68 2.987-6.667 6.667-6.667 3.68 0 6.667 2.987 6.667 6.667 0 3.68-2.987 6.667-6.667 6.667z"/>
</svg>
