<svg xmlns="http://www.w3.org/2000/svg" viewBox="0 0 29.716 29.715">
  <path d="M0 12.572q0-2.554.991-4.884.991-2.33 2.679-4.018Q5.358 1.982 7.688.991 10.018 0 12.572 0q2.554 0 4.884.991 2.33.991 4.018 2.679 1.688 1.688 2.679 4.018.991 2.33.991 4.884 0 3.929-2.214 7.125l6.125 6.125q.661.661.661 1.607t-.67 1.616q-.67.67-1.616.67-.964 0-1.607-.679l-6.125-6.107q-3.196 2.214-7.125 2.214-2.554 0-4.884-.991-2.33-.991-4.018-2.679-1.688-1.688-2.679-4.018-.991-2.33-.991-4.884zm4.571 0q0 3.304 2.348 5.652 2.348 2.348 5.652 2.348 3.304 0 5.652-2.348 2.348-2.348 2.348-5.652 0-3.304-2.348-5.652-2.348-2.348-5.652-2.348-3.304 0-5.652 2.348-2.348 2.348-2.348 5.652zm2.286.572v-1.143q0-.232.17-.402t.402-.17h10.286q.232 0 .402.17t.17.402v1.143q0 .232-.17.402t-.402.17H7.429q-.232 0-.402-.17t-.17-.402z"/>
</svg>
