<?xml version="1.0" encoding="utf-8"?>
<!-- Generator: Adobe Illustrator 16.0.3, SVG Export Plug-In . SVG Version: 6.00 Build 0)  -->
<!DOCTYPE svg PUBLIC "-//W3C//DTD SVG 1.1//EN" "http://www.w3.org/Graphics/SVG/1.1/DTD/svg11.dtd">
<svg version="1.1" id="Layer_1" xmlns="http://www.w3.org/2000/svg" xmlns:xlink="http://www.w3.org/1999/xlink" x="0px" y="0px"
	 width="500.38px" height="100px" viewBox="0 0 500.38 100" enable-background="new 0 0 500.38 100" xml:space="preserve">
<g>
	<path d="M128.335,85.24c3.804,0,34.599,0,34.599,0c1.807,0,2.711,0.854,2.711,2.56v9.488c0,1.808-0.956,2.712-2.861,2.712h-40.926
		c-9.477,0-19.014-9.326-19.014-18.714V3.012c0-2.007,0.954-3.012,2.862-3.012h11.295c1.906,0,2.861,1.005,2.861,3.012
		c0,0,0,71.654,0,73.751C119.863,80.967,124.147,85.24,128.335,85.24z"/>
	<path d="M190.796,96.836c-0.403,1.206-0.904,2.033-1.506,2.485S187.833,100,186.729,100h-11.747c-1.807,0-2.36-1.004-1.657-3.013
		l30.421-93.674c0.4-1.104,0.852-1.906,1.355-2.41c0.501-0.501,1.454-0.753,2.861-0.753h13.102c1.405,0,2.358,0.277,2.862,0.828
		c0.501,0.553,0.903,1.332,1.205,2.334l31.022,93.975c0.502,1.808,0,2.712-1.505,2.712h-13.252c-1.205,0-2.033-0.25-2.485-0.754
		c-0.452-0.5-0.879-1.304-1.28-2.41l-6.325-21.687h-33.735L190.796,96.836z M220.916,39.608l-6.175-21.687h-0.603l-6.024,21.385
		l-6.326,21.687h25.452L220.916,39.608z"/>
	<path d="M335.975,71.535c0,4.419-0.779,8.385-2.335,11.898c-1.557,3.515-3.666,6.5-6.326,8.96c-2.66,2.463-5.748,4.345-9.262,5.648
		c-3.515,1.306-7.229,1.958-11.144,1.958h-38.253c-1.306,0-2.182-0.25-2.635-0.754c-0.452-0.5-0.678-1.204-0.678-2.108V3.012
		c0-1.906,1.002-2.861,3.013-2.861h34.486c10.04,0,17.596,2.41,22.666,7.229c5.068,4.819,7.605,11.246,7.605,19.277
		c0,1.407-0.177,3.063-0.527,4.97c-0.354,1.909-0.979,3.817-1.883,5.723c-0.902,1.908-2.135,3.741-3.689,5.497
		c-1.558,1.758-3.539,3.238-5.947,4.443l0.148,0.301c3.014,1.005,5.472,2.46,7.381,4.367c1.905,1.908,3.412,3.991,4.518,6.25
		c1.103,2.259,1.856,4.57,2.259,6.928C335.772,67.496,335.975,69.63,335.975,71.535z M315.342,28.087
		c0-3.792-1.182-6.936-3.54-9.434c-2.358-2.494-6.199-3.744-11.52-3.744h-17.923v26.055h19.579c3.814,0,7.003-1.222,9.563-3.668
		C314.061,34.85,315.342,31.782,315.342,28.087z M318.203,70.481c0-4.014-1.23-7.53-3.69-10.541
		c-2.461-3.012-6.4-4.519-11.822-4.519h-20.331V85.24h20.331c3.013,0,5.521-0.4,7.53-1.206c2.008-0.801,3.614-1.882,4.82-3.237
		c1.204-1.355,2.033-2.911,2.483-4.67C317.977,74.374,318.203,72.491,318.203,70.481z"/>
</g>
<g>
	<path d="M356.526,59.533c-1.004,0-1.504-0.504-1.504-1.519V11.181h-9.283c-0.595,0-1.012-0.074-1.25-0.222
		c-0.237-0.145-0.356-0.516-0.356-1.104V6.851c0-0.471,0.058-0.898,0.178-1.281c0.118-0.382,0.473-0.691,1.062-0.929l8.145-3.003
		c0.708-0.353,1.401-0.589,2.081-0.708c0.677-0.117,1.429-0.177,2.257-0.177h5.224c0.766,0,1.253,0.148,1.461,0.443
		c0.204,0.295,0.31,0.736,0.31,1.325v55.493c0,1.015-0.502,1.519-1.505,1.519H356.526z"/>
	<path d="M425.532,60.331c-3.483,0-6.448-0.473-8.897-1.416c-2.449-0.943-4.485-2.229-6.107-3.852
		c-1.624-1.623-2.908-3.48-3.852-5.577c-0.944-2.095-1.638-4.278-2.081-6.551c-0.44-2.271-0.722-4.588-0.841-6.949
		c-0.118-2.359-0.176-4.573-0.176-6.639c0-1.417,0.058-3.128,0.176-5.135c0.119-2.005,0.413-4.086,0.886-6.241
		c0.473-2.154,1.18-4.307,2.124-6.462c0.944-2.154,2.227-4.073,3.853-5.754c1.622-1.683,3.643-3.053,6.063-4.116
		c2.418-1.063,5.369-1.595,8.853-1.595c5.135,0,9.19,0.916,12.172,2.745c2.979,1.83,5.237,4.161,6.772,6.994
		c1.534,2.833,2.523,5.976,2.965,9.428c0.443,3.453,0.665,6.832,0.665,10.136c0,1.83-0.061,3.881-0.178,6.152
		c-0.119,2.272-0.429,4.56-0.929,6.861c-0.503,2.301-1.24,4.53-2.213,6.684c-0.975,2.155-2.303,4.073-3.985,5.755
		c-1.681,1.681-3.761,3.024-6.241,4.027C432.083,59.829,429.072,60.331,425.532,60.331z M425.532,8.72
		c-2.539,0-4.574,0.563-6.108,1.686c-1.535,1.124-2.73,2.662-3.585,4.613c-0.856,1.952-1.417,4.244-1.682,6.875
		c-0.267,2.632-0.398,5.426-0.398,8.383c0,3.076,0.132,5.914,0.398,8.516c0.265,2.604,0.81,4.864,1.637,6.785
		c0.826,1.924,2.006,3.417,3.541,4.48c1.533,1.066,3.599,1.596,6.197,1.596c2.596,0,4.706-0.53,6.329-1.596
		c1.622-1.064,2.891-2.543,3.807-4.436c0.914-1.892,1.534-4.138,1.859-6.741c0.324-2.602,0.486-5.472,0.486-8.605
		c0-3.369-0.133-6.387-0.398-9.048c-0.265-2.662-0.841-4.922-1.727-6.786c-0.884-1.864-2.153-3.283-3.806-4.26
		C430.431,9.208,428.246,8.72,425.532,8.72z"/>
	<path d="M385.298,59.533c-1.005,0-1.505-0.504-1.505-1.519V11.181h-9.283c-0.595,0-1.011-0.074-1.249-0.222
		c-0.238-0.145-0.356-0.516-0.356-1.104V6.851c0-0.471,0.058-0.898,0.176-1.281c0.119-0.382,0.473-0.691,1.063-0.929l8.146-3.003
		c0.708-0.353,1.399-0.589,2.08-0.708c0.678-0.117,1.43-0.177,2.258-0.177h5.223c0.766,0,1.254,0.148,1.46,0.443
		c0.205,0.295,0.311,0.736,0.311,1.325v55.493c0,1.015-0.502,1.519-1.505,1.519H385.298z"/>
	<path d="M477.806,60.286c-3.482,0-6.448-0.473-8.896-1.417c-2.449-0.944-4.484-2.227-6.108-3.851
		c-1.624-1.623-2.907-3.481-3.851-5.578c-0.944-2.094-1.638-4.278-2.081-6.551c-0.442-2.271-0.723-4.588-0.841-6.948
		s-0.177-4.573-0.177-6.639c0-1.417,0.059-3.129,0.177-5.136c0.118-2.006,0.413-4.085,0.887-6.24c0.47-2.154,1.18-4.308,2.125-6.462
		c0.942-2.154,2.227-4.073,3.849-5.754c1.624-1.683,3.645-3.054,6.065-4.116C471.373,0.532,474.323,0,477.806,0
		c5.134,0,9.191,0.915,12.173,2.745c2.979,1.83,5.237,4.16,6.772,6.993c1.533,2.834,2.521,5.976,2.965,9.429
		c0.443,3.453,0.664,6.832,0.664,10.137c0,1.83-0.06,3.881-0.177,6.151c-0.119,2.273-0.429,4.56-0.931,6.861
		c-0.501,2.302-1.237,4.53-2.213,6.685c-0.974,2.154-2.301,4.071-3.983,5.754c-1.681,1.681-3.763,3.024-6.24,4.027
		C484.356,59.784,481.347,60.286,477.806,60.286z M477.806,8.675c-2.537,0-4.573,0.563-6.108,1.686
		c-1.534,1.124-2.729,2.662-3.584,4.613c-0.856,1.952-1.418,4.244-1.683,6.875c-0.266,2.633-0.399,5.426-0.399,8.383
		c0,3.076,0.134,5.914,0.399,8.517c0.265,2.603,0.811,4.864,1.638,6.785c0.825,1.923,2.007,3.416,3.54,4.48
		c1.534,1.065,3.599,1.596,6.197,1.596c2.596,0,4.706-0.531,6.33-1.596c1.622-1.065,2.891-2.544,3.808-4.436
		c0.913-1.892,1.533-4.138,1.858-6.742c0.322-2.602,0.487-5.471,0.487-8.604c0-3.37-0.133-6.386-0.399-9.048
		c-0.266-2.662-0.84-4.922-1.727-6.785c-0.885-1.864-2.155-3.283-3.807-4.26C482.703,9.164,480.52,8.675,477.806,8.675z"/>
</g>
<g>
	<circle fill="#E22126" cx="45.958" cy="50.856" r="40.683"/>
	<path fill="#AE1F25" d="M0,29.056C8.163,11.876,25.674,0,45.958,0c0,23.472,0,50.854,0,50.854S45.958,50.854,0,29.056z"/>
	<g>
		<circle fill="#AE1F25" cx="45.958" cy="50.854" r="20.342"/>
	</g>
</g>
</svg>
